<svg xmlns="http://www.w3.org/2000/svg" xmlns:xlink="http://www.w3.org/1999/xlink" version="1.1" x="0px" y="0px" viewBox="0 0 100 125" style="enable-background:new 0 0 100 100;" xml:space="preserve"><path d="M67.4,90.2c6.7,0,12.5-2,16.7-6.1C95.8,72.4,90,46.6,71.3,27.9C53.5,10.1,24.5,5.6,15,15.1c-9.5,9.5-5,38.5,12.8,56.3  C39.9,83.5,55.1,90.2,67.4,90.2z M88,65.9L65.9,88c0,0,0,0.1-0.1,0.1c-2.6-0.1-5.3-0.6-8.1-1.3l29-29C87.4,60.6,87.9,63.4,88,65.9z   M82.6,82.7c-3.5,3.5-8.4,5.2-14,5.4L88,68.8C87.8,74.4,86.1,79.3,82.6,82.7z M86.1,55.7L55.6,86.2c-9-2.7-18.4-8.3-26.4-16.3  c-6.9-6.9-12.2-16.1-15-25.7L44,14.5c0.1-0.1,0.1-0.1,0.1-0.2c9.6,2.8,18.8,8.1,25.7,15C77.8,37.3,83.4,46.7,86.1,55.7z M41.9,13.7  L13.6,42c-0.2-0.8-0.4-1.5-0.5-2.3c-0.4-2-0.7-3.9-0.8-5.7l21.6-21.6c1.8,0.2,3.7,0.4,5.7,0.8C40.4,13.3,41.2,13.5,41.9,13.7z   M16.4,16.5c2.8-2.8,7.8-4.3,14-4.3c0.3,0,0.5,0,0.8,0L12.1,31.3C12,24.8,13.5,19.4,16.4,16.5z"/><path d="M44.2,34.5c0.4-0.4,0.4-1,0-1.4s-1-0.4-1.4,0l-4.2,4.2l-4.5-4.5c-0.4-0.4-1-0.4-1.4,0s-0.4,1,0,1.4l4.5,4.5L33,42.9  c-0.4,0.4-0.4,1,0,1.4c0.2,0.2,0.5,0.3,0.7,0.3s0.5-0.1,0.7-0.3l4.2-4.2l4,4l-4.2,4.2c-0.4,0.4-0.4,1,0,1.4c0.2,0.2,0.5,0.3,0.7,0.3  s0.5-0.1,0.7-0.3l4.2-4.2l4,4l-4.2,4.2c-0.4,0.4-0.4,1,0,1.4c0.2,0.2,0.5,0.3,0.7,0.3s0.5-0.1,0.7-0.3l4.2-4.2l4,4l-4.2,4.2  c-0.4,0.4-0.4,1,0,1.4c0.2,0.2,0.5,0.3,0.7,0.3s0.5-0.1,0.7-0.3l4.2-4.2l4,4l-4.2,4.2c-0.4,0.4-0.4,1,0,1.4c0.2,0.2,0.5,0.3,0.7,0.3  s0.5-0.1,0.7-0.3l4.2-4.2l4.5,4.5c0.2,0.2,0.5,0.3,0.7,0.3s0.5-0.1,0.7-0.3c0.4-0.4,0.4-1,0-1.4l-4.5-4.5l4.2-4.2  c0.4-0.4,0.4-1,0-1.4s-1-0.4-1.4,0l-4.2,4.2l-4-4l4.2-4.2c0.4-0.4,0.4-1,0-1.4s-1-0.4-1.4,0L55,53.7l-4-4l4.2-4.2  c0.4-0.4,0.4-1,0-1.4s-1-0.4-1.4,0l-4.2,4.2l-4-4l4.2-4.2c0.4-0.4,0.4-1,0-1.4s-1-0.4-1.4,0l-4.2,4.2l-4-4L44.2,34.5z"/><text x="0" y="115" fill="#000000" font-size="5px" font-weight="bold" font-family="'Helvetica Neue', Helvetica, Arial-Unicode, Arial, Sans-serif">Created by Made</text><text x="0" y="120" fill="#000000" font-size="5px" font-weight="bold" font-family="'Helvetica Neue', Helvetica, Arial-Unicode, Arial, Sans-serif">from the Noun Project</text></svg>