<svg xmlns="http://www.w3.org/2000/svg" data-name="Layer 1" viewBox="0 0 100 125" x="0px" y="0px"><path d="m88.379,61.21c.024-.056.035-.113.049-.172,1.009-3.509,1.562-7.209,1.562-11.038,0-8.015-2.379-15.48-6.455-21.744-.047-.095-.097-.185-.168-.262-5.505-8.319-14.033-14.464-24.006-16.866-.052-.017-.103-.027-.157-.036-2.957-.699-6.036-1.081-9.203-1.081-8.261,0-15.945,2.518-22.325,6.827-.051.032-.1.062-.144.101-6.414,4.373-11.492,10.562-14.496,17.821-.023.052-.048.101-.062.157-1.905,4.658-2.963,9.749-2.963,15.084,0,17.05,10.729,31.633,25.787,37.375.055.027.109.049.169.067,4.369,1.643,9.097,2.548,14.034,2.548,5.757,0,11.229-1.233,16.18-3.432.092-.025.177-.069.261-.118,10.537-4.773,18.646-13.979,21.938-25.229Zm-22.166,22.895c-5.827-7.336-9.835-15.278-11.579-23.028-1.649-7.327-1.165-13.951,1.343-19.263,10.547,4.208,20.546,10.633,30.114,19.322-3.134,10.135-10.428,18.458-19.878,22.969Zm20.526-25.376c-9.561-8.538-19.308-14.754-29.694-18.926,4.506-7.312,13.256-10.839,24.852-9.988,3.711,5.844,5.871,12.765,5.871,20.186,0,3.005-.363,5.925-1.029,8.729Zm-6.429-31.236c-11.793-.448-20.696,3.59-25.362,11.497-4.328-1.611-8.802-2.866-13.359-3.762,3.781-9.685,9.646-16.931,17.621-21.856,8.563,2.154,15.975,7.237,21.1,14.121Zm-24.183-14.757c-4.259,2.945-7.931,6.586-10.928,10.867-2.314,3.305-4.268,7.067-5.857,11.214-1.211-.205-2.426-.393-3.647-.547-2.028-.255-4.09-.432-6.175-.549,1.17-5.393,1.168-10.492.005-15.433,5.904-3.826,12.932-6.057,20.476-6.057,2.086,0,4.131.177,6.126.504Zm-28.59,6.924c.902,4.419.808,9.044-.31,13.959-3.731-.117-7.537-.015-11.392.303,2.677-5.665,6.718-10.562,11.702-14.262Zm-12.697,16.578c4.018-.377,7.961-.52,11.83-.414-2.089,7.351-6.412,15.369-13.041,24.328-.904-3.233-1.397-6.634-1.397-10.151,0-4.855.931-9.495,2.608-13.763Zm-.383,26.527c6.259-8.268,10.553-15.601,13.091-22.392.564-1.509,1.043-2.993,1.44-4.455,3.243.172,6.436.517,9.58,1.036-.421,1.231-.819,2.484-1.177,3.778-3.247,11.75-4.024,26.141-2.384,43.924-9.518-4.134-17.013-12.074-20.549-21.892Zm22.866,22.808c-1.931-19.885-.792-35.894,3.482-48.216,4.45.859,8.802,2.078,13.065,3.648-2.658,5.737-3.147,12.814-1.404,20.56,1.78,7.911,5.794,15.995,11.63,23.464-4.359,1.761-9.114,2.74-14.097,2.74-4.446,0-8.712-.778-12.678-2.195Z"/><text x="0" y="115" fill="#000000" font-size="5px" font-weight="bold" font-family="'Helvetica Neue', Helvetica, Arial-Unicode, Arial, Sans-serif">Created by Ishaq_hmad</text><text x="0" y="120" fill="#000000" font-size="5px" font-weight="bold" font-family="'Helvetica Neue', Helvetica, Arial-Unicode, Arial, Sans-serif">from the Noun Project</text></svg>